<?xml version="1.0" encoding="utf-8"?>

<!-- The icon can be used freely in both personal and commercial projects with no attribution required, but always appreciated. 
You may NOT sub-license, resell, rent, redistribute or otherwise transfer the icon without express written permission from iconmonstr.com -->

<!DOCTYPE svg PUBLIC "-//W3C//DTD SVG 1.1//EN" "http://www.w3.org/Graphics/SVG/1.1/DTD/svg11.dtd">
<svg version="1.1" xmlns="http://www.w3.org/2000/svg" xmlns:xlink="http://www.w3.org/1999/xlink" x="0px" y="0px"
	 width="512px" height="512px" viewBox="0 0 512 512" enable-background="new 0 0 512 512" xml:space="preserve">
<path id="share-2-icon" fill="#fefefe" d="M230.178,107.52c0,31.488-25.526,57.015-57.019,57.015c-31.482,0-57.009-25.526-57.009-57.015
	c0-31.491,25.526-57.018,57.009-57.018C204.651,50.502,230.178,76.028,230.178,107.52z M173.164,347.462
	c-31.493,0-57.019,25.534-57.019,57.019c0,31.492,25.525,57.018,57.019,57.018c31.492,0,57.019-25.525,57.019-57.018
	C230.183,372.996,204.656,347.462,173.164,347.462z M260.129,110.277c45.523,4.372,85.009,29.728,108.64,66.257
	c17.059-7.84,35.991-9.792,53.821-6.112c-31.763-65.529-98.955-110.823-176.531-110.823c-0.101,0-0.201,0.004-0.302,0.004
	C255.449,74.236,260.703,91.702,260.129,110.277z M122.652,333.664c-30.088-47.424-30.214-108.003-0.304-155.554
	c-14.402-10.396-25.509-25.085-31.429-42.177c-54.611,70.611-54.564,169.077,0.169,239.641
	C97.094,358.571,108.238,343.975,122.652,333.664z M368.771,334.752c-23.636,36.538-63.13,61.896-108.664,66.263
	c0.718,18.387-4.28,35.872-13.879,50.675c77.506-0.066,144.625-45.342,176.364-110.826
	C404.808,344.532,385.88,342.615,368.771,334.752z M404.982,198.63c-31.483,0-57.01,25.525-57.01,57.014
	c0,31.487,25.526,57.013,57.01,57.013c31.491,0,57.018-25.525,57.018-57.013C462,224.155,436.474,198.63,404.982,198.63z"/>
</svg>
