<?xml version="1.0" encoding="utf-8"?>


<!-- The icon can be used freely in both personal and commercial projects with no attribution required, but always appreciated. 
You may NOT sub-license, resell, rent, redistribute or otherwise transfer the icon without express written permission from iconmonstr.com -->


<!DOCTYPE svg PUBLIC "-//W3C//DTD SVG 1.1//EN" "http://www.w3.org/Graphics/SVG/1.1/DTD/svg11.dtd">

<svg version="1.1" xmlns="http://www.w3.org/2000/svg" xmlns:xlink="http://www.w3.org/1999/xlink" x="0px" y="0px"

	 width="512px" height="512px" viewBox="0 0 512 512" enable-background="new 0 0 512 512" xml:space="preserve">

<path id="globe-2-icon" fill="#fefefe" d="M256,50C142.229,50,50,142.23,50,256C50,369.771,142.229,462,256,462c113.77,0,206-92.229,206-206

	C462,142.23,369.77,50,256,50z M391.006,162.053h-42.734c-7.105-20.996-16.766-40.641-28.99-57.903

	C348.361,116.283,373.207,136.525,391.006,162.053z M362.895,240.21c-0.814-15.678-2.82-31.32-6.031-46.579h51.359

	c5.986,14.595,9.936,30.237,11.494,46.579H362.895z M419.717,271.789c-1.562,16.385-5.527,32.065-11.539,46.691h-51.182

	c3.184-15.299,5.158-30.98,5.938-46.691H419.717z M271.789,162.053V97.882c18.928,16.657,33.154,39.05,42.984,64.171H271.789z

	 M324.555,193.631c3.596,15.229,5.818,30.938,6.721,46.579h-59.486v-46.579H324.555z M240.21,97.005v65.048h-43.994

	C206.22,136.488,220.779,113.749,240.21,97.005z M240.21,193.631v46.579h-60.496c0.902-15.642,3.125-31.351,6.72-46.579H240.21z

	 M240.21,271.789v46.691h-53.93c-3.563-15.271-5.749-31.02-6.611-46.691H240.21z M240.21,350.06v65.685

	c-19.593-16.882-34.228-39.86-44.239-65.685H240.21z M271.789,414.866V350.06h43.229

	C305.18,375.438,290.875,398.069,271.789,414.866z M271.789,318.48v-46.691h59.531c-0.863,15.672-3.049,31.42-6.611,46.691H271.789z

	 M191.271,104.762c-12.019,17.113-21.532,36.544-28.553,57.291h-41.726C138.496,136.95,162.813,116.957,191.271,104.762z

	 M148.094,240.21H92.283c1.558-16.342,5.507-31.984,11.493-46.579h50.35C150.915,208.89,148.91,224.532,148.094,240.21z

	 M153.994,318.48h-50.173c-6.012-14.626-9.977-30.307-11.538-46.691h55.772C148.834,287.5,150.81,303.182,153.994,318.48z

	 M121.071,350.06h41.437c6.894,20.545,16.214,39.82,27.992,56.842C162.416,394.695,138.408,374.883,121.071,350.06z

	 M320.031,407.544c11.992-17.181,21.471-36.679,28.451-57.484h42.445C373.289,375.315,348.748,395.395,320.031,407.544z"/>

</svg>

