<?xml version="1.0" encoding="utf-8"?>
<!-- Generator: Adobe Illustrator 15.0.0, SVG Export Plug-In . SVG Version: 6.00 Build 0)  -->
<!DOCTYPE svg PUBLIC "-//W3C//DTD SVG 1.1//EN" "http://www.w3.org/Graphics/SVG/1.1/DTD/svg11.dtd">
<svg version="1.1" id="Layer_1" xmlns="http://www.w3.org/2000/svg" xmlns:xlink="http://www.w3.org/1999/xlink" x="0px" y="0px"
	 width="512px" height="512px" viewBox="0 0 512 512" enable-background="new 0 0 512 512" xml:space="preserve">
<path id="globe-4-icon" fill="#574b4b" d="M274.934,192.799c-0.597-1.016,5.67-1.759,6.752-1.669C283.019,191.275,278.279,198.573,274.934,192.799
	C274.861,192.676,275.044,192.989,274.934,192.799z M239.411,142.092c-0.788,0.091,1.943-0.396,1.785-0.518
	c1.086,0.827-1.179,1.601-0.841,2.237c0.952,1.757-0.281,5.696-0.887,5.129c0.331,0.306,1.232-0.923,1.032,0.348
	c-0.224,1.423-1.755,0.784-2.461,1.542c-0.66,0.746,4.271,1.302,4.302,1.394c0.199,0.588-6.155,1.397-5.02,2.825
	c0.695,0.873,7.428-0.901,8.792-0.878c3.538,0.061,2.93-2.038,2.898-2.029c4.29-1.316-0.004-2.315-1.594-3.137
	c-0.163-0.667,1.277-4.003-1.256-3.571c2.322-0.31-2.586-8.22-2.239-7.655c-0.468-0.787,1.822-1.137,1.445-1.677
	C241.924,131.166,239.422,142.078,239.411,142.092C239.411,142.092,239.774,141.6,239.411,142.092z M462,255.999
	c0,75.684-42.873,146.777-109.761,182.185c-67.803,35.892-152.42,30.41-215.042-13.871C74.912,380.268,41.625,303.642,51.88,228.046
	c10.096-74.421,61.881-138.959,132.239-165.159C316.582,13.563,462,114.831,462,255.999C462,369.77,462,142.229,462,255.999z
	 M316.954,167.344c-0.047-2.341-3.069-4.813-6.304-0.512c-2.174,2.858-1.886,7.226-3.019,9.196
	c-1.851,3.248,21.557,1.828,23.73,2.439c8.352,2.275,5.458-4.139,0.925-7.864c-4.65-3.822-6.374-2.246-6.946-7.024
	c0.003,0.025,3.097-2.94,1.751-2.746C323.6,161.229,317.111,173.845,316.954,167.344
	C316.944,166.852,316.959,167.546,316.954,167.344z M420.885,255.999c0-10.267,1.001-51.585-16.175-50.332
	c-4.858,0.354-8.204,5.612-12.916,5.37c-2.411-0.12-5.706,3.278-7.489-0.515c-1.149-2.441-2.986-1.908-4.293,0.482
	c-1.654,3.033-26.34-18.492-12.53,0.921c1.993,2.801,9.038,13.708,13.071,6.146c1.168-2.398,7.721-1.199,9.774-0.223
	c5.05,2.372,0.885,7.479,0.854,10.24c-0.069,7.37-6.118,16.59-12.063,21.596c-3.982,3.35-9.222,9.377-14.388,10.589
	c-3.097,0.721-6.403-14.021-8.725-16.202c-5.202-4.886-6.467-8.981-10.432-14.444c-2.281-3.143-13.191-11.521-13.005-14.899
	c0.214,0.961,0.123,1.873-0.271,2.735c-1.57,1.187-4.864-4.415-5.216-5.31c-1.027,3.34,8.764,13.881,10.535,16.533
	c4.466,6.685,6.89,16.42,12.366,21.896c2.925,2.925,14.16,15.084,17.077,14.83c3.221-0.281,13.211-7.571,15.036-7.147
	c6.56,1.523-10.563,33.568-12.639,35.65c-6.392,6.416-11.456,15.544-15.754,23.485c-2.799,5.21,2.263,18.203,1.851,24.356
	c-0.478,7.146-6.094,9.467-11.422,13.353c-5.283,3.854-4.484,12.293-8.533,14.863c-9.43,5.985-13.062,15.622-23.759,21.288
	c-4.943,2.618-10.973,1.524-16.183,3.751c-7.305,3.113-7.473-3.968-9.536-7.475c-5.097-8.662-7.932-16.384-12.465-25.366
	c-6.573-9.183,6.452-15.561,2.403-22.176c-2.108-3.564-2.255-9.031-4.449-13.02c-1.354-2.46-11.138-10.438-9.399-11.854
	c0.468-0.375,5.379-15.096,0.756-14.655c-1.415,0.12-9.396-0.409-10.935-0.92c-3.055-1.014-2.002-5.593-5.204-6.937
	c-4.625-1.94-11.036,3.201-15.277,4.47c-12.944,3.871-27.661-4.185-36.511-12.887c-2.834-2.787-10.315-21.554-8.725-26.838
	c0.179-3.585,2.417-7.463,3.29-10.975c0.82-3.35-1.925-8.81-0.771-11.383c5.575-12.429,12.232-14.622,21.593-20.507
	c3.814-2.398,10.811-22.396,18.969-17.01c10.065-2.128,21.316-3.059,31.776-3.764c4.307-0.291,14.298,1.555,7.793,8.115
	c-1.277,1.289,12.633,7.504,15.04,9.079c9.278,6.068,7.15-0.517,12.301-4.717c2.567-2.09,8.7,0.754,11.761,2.005
	c6.958,2.843,26.854,2.757,24.122-9.009c-2.953-12.725,0.888-6.672-8.691-5.675c-5.605,0.564-24.054-5.023-14.634-11.951
	c-2.965,2.177-5.718-0.48-8.915,1.786c-2.684,1.495,1.021,2.969-1.061,3.93c-7.68,2.938-6.057-5.616-10.011-8.807
	c-2.6-2.095-15.854-7.77-15.506-7.139c1.053,1.88,8.717,8.838,8.776,9.405c-0.291-2.772,7.494,7.212,5.394,5.301
	c-1.541-1.387-5.091-0.764-2.898,0.318c2.632,1.239-1.952,4.945-2.251,4.435c-0.9-1.534,1.508-2.252,0.115-4.411
	c-1.069-1.711-3.271-2.176-4.52-3.722c-2.07-2.566-7.539-8.208-10.506-9.567c-0.853-0.39-12.595,1.424-13.606,1.826
	c-1.157,1.604-2.136,3.31-2.936,5.118c-2.446,0.914-4.758,2.091-6.936,3.533c-1.638,1.499-1.311,4.732-2.57,5.815
	c-1.298,1.298-12.565,4.651-12.69,4.953c0.486-1.137-8.032-2.883-7.49-5.291c0.654-2.904,3.617-10.825,2.77-14.35
	c-0.783-3.264,17.766,4.722,18.93-3.872c0.494-3.719,0.808-8.032-5.174-8.682c1.126,0.116,11.53-4.039,13.185-5.942
	c2.417-2.791,7.952-7.297,11.949-7.297c3.178-3.178,3.009-5.235,5.826-10.165c1.174,0.497,0.909,2.867,0.328,3.593
	c-3.79,4.205,0.335,2.256,1.114,4.788c-0.168-1.695,7.352,0.919,8.076,0.535c1.701-0.904,11.341-0.398,9.808-4.882
	c0-0.294-0.887-5.258,1.508-4.184c0.558,0.252,7.543-9.012,8.125-6.811c-0.966-3.523-6.798,1.237-9.125,1.051
	c-3.726-0.3-3.833-6.197-2.365-8.436c3.728-5.686-2.67-5.228-2.708-3.138c-0.065,3.528-2.931,3.874-3.371,7.712
	c-0.296,2.58,0.595,9.58-0.773,12.19c-4.212,8.015-7.903-6.624-14.059-3.72c-4.402,2.077-7.095-4.702-5.127-7.839
	c2.447-3.902,8.316-3.662,10.751-7.848c0.896-1.54,4.106-7.595,5.267-7.595c6.42-6.146,11.031-5.477,17.525-2.472
	c-0.409-0.19,14.611,5.295,6.923,5.091c-6.781-0.185,5.879,6.161,4.182,4.281c-0.835-0.296-1.601-0.718-2.297-1.266
	c0.119-1.129,2.715,0.471,3.305-0.306c0.048-0.063-1.567-4.154,0.588-4.109c1.534,0.032,2.783-0.045,3.912-1.451
	c2.369-2.971,4.815-3.388,7.301-6.122c4.863-5.363-19.609-11.311-23.351-12.199c-7.622-1.809-15.373-3.069-23.175-3.777
	c-9.994-0.906-15.1,7.111-23.46,11.587c-0.652,0.349-31.945,11.202-33.488,8.707c-0.196-0.318,1.405-1.003,1.188-1.017
	c-7.446-0.444-12.457,9.353-18.918,9.608c-4.253,0.181,5.27-10.654,6.102-11.476c-3.073-1.202,17.213-9.277,17.624-11.629
	c0.104-0.76-1.954,0.84-2.29,0.217c-0.878-1.597,4.884-0.599,4.39-2.553c-1.276-5.041-21.876,7.721-25.528,8.42
	c0.226-0.193,2.092-2.244,2.169-2.21c-2.793-1.21-5.735,5.181-7.956,4.583c-0.673-0.181,0.274-1.597,0.561-1.841
	c-2.055,1.028-14.637,5.947-13.391,7.953c0.964,1.479,4.928,1.547-0.28,4.83c-4.174,2.632-4.69,11.928-8.926,13.232
	c-0.949,0.421-17.924-0.854-17.366,0.255c-0.304-0.455,9.457,1.995,1.68,1.995c-0.05,0.008-2.024,5.285-2.667,5.806
	c-3.077,2.492-11.213,1.188-14.553,4.649c-20.212,21.446-34.494,48.238-40.913,77.007c-0.86,5.27-3.364,10.256,2.748,12.726
	c3.99,1.633,2.475,7.726,3.664,12.011c2.572,9.266,6.841,12.78,12.008,20.916c3.145,4.952,8.171,16.107,6.58,21.416
	c5.189-1.906,8.172,5.188,12.417,8.379c6.066,4.561,12.583,12.359,15.898,19.172c3.535,7.262-8.633,11.705-7.269,17.821
	c0.837,3.751,4.739,16.92,1.31,19.806c-1.029,0.866-13.117,0.604-10.579,6.137c5.019,10.921,9.942,17.251,19.668,25.229
	c20.999,17.224,46.193,29.122,72.858,34.303C324.749,437.362,420.885,358.234,420.885,255.999
	C420.885,238.926,420.885,347.063,420.885,255.999z M231.627,150.917c16.335-7.079-4.006-10.422-2.16-0.157
	C230.105,151.409,230.825,151.461,231.627,150.917C232.312,150.62,230.873,151.243,231.627,150.917z"/>
</svg>
