<?xml version="1.0" encoding="utf-8"?>

<!-- License Agreement at http://iconmonstr.com/license/ -->

<!DOCTYPE svg PUBLIC "-//W3C//DTD SVG 1.1//EN" "http://www.w3.org/Graphics/SVG/1.1/DTD/svg11.dtd">
<svg version="1.1" xmlns="http://www.w3.org/2000/svg" xmlns:xlink="http://www.w3.org/1999/xlink" x="0px" y="0px"
	 width="512px" height="512px" viewBox="0 0 512 512" enable-background="new 0 0 512 512" xml:space="preserve">
<path id="youtube-new-4-icon" fill="#574b4b" d="M256,50C142.229,50,50,142.229,50,256s92.229,206,206,206s206-92.229,206-206S369.771,50,256,50z
	 M377.13,301.375c-3.877,32.944-16.937,37.485-42.925,39.254c-36.948,2.514-119.437,2.516-156.411,0
	c-25.988-1.769-39.047-6.31-42.924-39.254c-2.887-24.545-2.877-66.291,0-90.749c3.877-32.945,16.936-37.486,42.924-39.253
	c36.975-2.518,119.463-2.516,156.411,0c25.988,1.767,39.048,6.308,42.925,39.253C380.017,235.17,380.007,276.915,377.13,301.375z
	 M231.445,221.647l65.96,34.392l-65.96,34.389V221.647z"/>
</svg>
